M48
; DRILL file {KiCad (5.1.5)-3} date 24.04.2020 18:36:50
; FORMAT={-:-/ absolute / metric / decimal}
; #@! TF.CreationDate,2020-04-24T18:36:50+02:00
; #@! TF.GenerationSoftware,Kicad,Pcbnew,(5.1.5)-3
; #@! TF.FileFunction,Plated,1,2,PTH
FMAT,2
METRIC
T1C0.800
T2C3.160
%
G90
G05
T1
X3.56Y-2.54
X6.1Y-2.54
X7.62Y-50.8
X8.64Y-2.54
X10.16Y-50.8
X11.18Y-2.54
X12.7Y-50.8
X13.72Y-2.54
X15.24Y-50.8
X16.26Y-2.54
X17.78Y-50.8
X18.8Y-2.54
X20.32Y-50.8
X21.34Y-2.54
X22.86Y-50.8
X25.4Y-2.54
X25.4Y-50.8
X27.94Y-2.54
X30.48Y-2.54
X30.48Y-50.8
X33.02Y-2.54
X33.02Y-50.8
X35.56Y-2.54
X35.56Y-50.8
X38.1Y-2.54
X38.1Y-50.8
X40.64Y-2.54
X40.64Y-50.8
X43.18Y-2.54
X43.18Y-50.8
T2
X12.7Y-10.16
X12.7Y-27.94
X33.02Y-10.16
X33.02Y-27.94
T0
M30
